<?xml version="1.0" standalone="no"?>
<!DOCTYPE svg PUBLIC "-//W3C//DTD SVG 20010904//EN"
 "http://www.w3.org/TR/2001/REC-SVG-20010904/DTD/svg10.dtd">
<svg version="1.0" xmlns="http://www.w3.org/2000/svg"
 width="656.000000pt" height="656.000000pt" viewBox="0 0 656.000000 656.000000"
 preserveAspectRatio="xMidYMid meet">
<metadata>
Created by potrace 1.11, written by Peter Selinger 2001-2013
</metadata>
<g transform="translate(0.000000,656.000000) scale(0.100000,-0.100000)"
fill="#000000" stroke="none">
<path d="M5365 6304 c-17 -13 -48 -33 -70 -45 -22 -11 -62 -33 -90 -49 -65
-39 -75 -38 -75 5 0 19 -2 35 -4 35 -3 0 -25 -13 -49 -30 -25 -16 -49 -30 -53
-30 -4 0 -24 -11 -43 -24 -50 -33 -234 -140 -333 -195 -23 -13 -54 -32 -67
-42 -13 -10 -27 -16 -32 -13 -5 3 -9 0 -9 -5 0 -6 -5 -11 -11 -11 -6 0 -26
-12 -45 -26 -19 -15 -34 -24 -34 -20 0 3 -19 -7 -42 -24 -22 -16 -45 -30 -50
-30 -4 0 -32 -15 -61 -34 -72 -46 -226 -136 -233 -136 -3 0 -18 -8 -32 -19
-15 -10 -49 -31 -77 -46 -27 -16 -56 -34 -63 -42 -7 -7 -22 -13 -32 -13 -10 0
-20 -4 -22 -9 -3 -8 -56 -40 -153 -92 -22 -12 -47 -27 -55 -34 -8 -7 -37 -25
-65 -41 -27 -15 -63 -35 -80 -45 -16 -10 -52 -30 -80 -45 -27 -14 -60 -34 -75
-44 -14 -10 -70 -44 -125 -76 -55 -32 -102 -60 -105 -63 -3 -3 -12 -7 -20 -9
-8 -2 -22 -9 -30 -17 -8 -7 -35 -23 -60 -35 -25 -13 -47 -26 -50 -29 -3 -4
-26 -19 -51 -34 -68 -39 -127 -91 -181 -160 -27 -34 -53 -68 -58 -74 -6 -7
-11 -16 -11 -20 -1 -5 -10 -25 -21 -47 -11 -21 -21 -46 -23 -55 -2 -9 -12 -41
-21 -71 -15 -47 -18 -112 -21 -467 -3 -249 -1 -413 5 -413 5 0 21 9 36 21 14
11 26 17 26 12 0 -4 4 -3 8 3 4 6 39 28 77 49 39 20 82 46 97 56 14 11 30 19
36 19 17 0 26 -107 26 -315 l1 -201 -33 -22 c-18 -12 -40 -22 -48 -22 -8 0
-14 -3 -14 -8 0 -4 -17 -16 -37 -27 -21 -10 -57 -32 -81 -47 -24 -15 -45 -28
-48 -28 -2 0 -23 -12 -47 -27 -23 -15 -45 -26 -49 -25 -5 1 -8 -3 -8 -10 0 -6
-3 -9 -6 -5 -3 3 -11 1 -18 -4 -12 -11 -78 -52 -86 -54 -7 -2 -67 -36 -104
-60 -17 -12 -62 -39 -101 -60 -38 -22 -79 -45 -90 -52 -11 -7 -35 -20 -52 -29
-18 -10 -33 -22 -33 -26 0 -5 -4 -7 -9 -3 -5 3 -16 -1 -23 -9 -8 -8 -37 -26
-64 -40 -27 -14 -65 -36 -86 -48 -20 -13 -60 -37 -90 -54 -43 -26 -132 -107
-204 -188 -19 -21 -81 -148 -105 -216 -22 -63 -23 -75 -24 -482 -1 -230 0
-418 3 -418 10 0 109 53 125 67 9 9 17 13 17 10 0 -4 16 4 35 18 20 13 49 30
65 37 17 7 30 16 30 20 0 5 5 8 10 8 6 0 10 -11 10 -25 0 -14 2 -25 5 -25 7 0
84 41 160 85 33 20 71 40 85 46 14 6 32 16 40 24 15 14 61 40 162 94 31 17 59
35 63 41 3 5 12 10 20 10 8 0 34 14 58 30 25 17 49 30 54 30 5 0 27 13 49 30
21 16 44 30 50 30 5 0 25 11 44 25 19 14 40 25 47 25 11 0 13 -132 13 -704 0
-397 4 -707 9 -710 5 -3 19 3 32 13 13 10 44 28 69 41 25 12 47 26 50 29 3 4
35 24 72 44 l67 36 3 -29 3 -30 210 121 c116 67 239 137 275 156 36 20 72 42
81 49 8 8 19 14 23 14 25 0 162 123 203 184 15 22 31 43 34 46 14 11 68 140
85 200 17 59 19 120 21 655 2 325 6 596 8 603 3 7 19 20 37 28 18 8 62 33 98
54 103 62 140 81 140 74 0 -4 8 2 18 12 15 18 46 36 137 82 17 9 32 19 35 22
3 4 30 20 60 35 30 15 57 30 60 34 3 3 25 17 50 30 25 13 52 30 61 37 8 8 19
14 23 14 12 0 128 71 154 94 67 60 112 106 112 115 0 6 6 14 14 18 24 13 87
133 114 218 l26 80 4 422 3 422 -33 -16 c-18 -9 -47 -27 -64 -40 -17 -13 -33
-23 -36 -23 -3 0 -36 -18 -72 -40 -36 -22 -70 -40 -76 -40 -5 0 -10 16 -10 35
l0 35 -35 -15 c-20 -8 -43 -21 -51 -30 -9 -8 -19 -13 -24 -10 -5 3 -10 2 -12
-3 -3 -7 -92 -61 -183 -112 -22 -12 -47 -28 -56 -36 -8 -8 -19 -14 -23 -14 -8
0 -170 -95 -195 -114 -7 -5 -19 -11 -26 -12 -8 -1 -29 -14 -48 -28 -19 -14
-37 -26 -42 -26 -4 0 -37 -18 -72 -41 -36 -22 -66 -39 -68 -37 -2 2 -5 103 -7
225 l-5 222 39 26 c22 14 60 38 86 52 58 32 89 50 172 98 36 21 83 48 105 60
22 12 75 43 118 69 43 25 81 46 84 46 3 0 17 9 32 19 14 11 48 31 74 45 73 40
126 70 197 111 36 21 81 46 100 57 19 11 40 24 45 28 10 8 89 52 140 78 17 8
44 25 62 38 17 13 36 24 42 24 16 0 175 160 194 195 47 87 86 177 101 236 13
55 16 127 16 462 0 217 -3 398 -8 400 -4 3 -21 -6 -37 -19z"/>
</g>
</svg>
